HIERARCHY
ROOT Hips
{
    OFFSET 0.000000 0.000000 0.000000
    CHANNELS 6 Xposition Yposition Zposition Zrotation Xrotation Yrotation
    JOINT Spine
    {
        OFFSET -0.000000 14.517291 0.000000
        CHANNELS 3 Zrotation Xrotation Yrotation
        JOINT Spine1
        {
            OFFSET -0.000000 37.558300 0.000000
            CHANNELS 3 Zrotation Xrotation Yrotation
            JOINT Neck
            {
                OFFSET -0.000000 37.404057 3.400369
                CHANNELS 3 Zrotation Xrotation Yrotation
                JOINT Head
                {
                    OFFSET -0.000000 24.785618 -3.540803
                    CHANNELS 3 Zrotation Xrotation Yrotation
                    End Site
                    {
                        OFFSET -0.000000 35.408028 0.000000
                    }
                }
            }
            JOINT LeftShoulder
            {
                OFFSET 6.992933 33.973492 -0.192664
                CHANNELS 3 Zrotation Xrotation Yrotation
                JOINT LeftArm
                {
                    OFFSET 21.527611 0.000000 0.000000
                    CHANNELS 3 Zrotation Xrotation Yrotation
                    JOINT LeftForeArm
                    {
                        OFFSET 56.353916 0.000000 0.000000
                        CHANNELS 3 Zrotation Xrotation Yrotation
                        JOINT LeftHand
                        {
                            OFFSET 47.774071 0.000000 0.000000
                            CHANNELS 3 Zrotation Xrotation Yrotation
                            End Site
                            {
                                OFFSET 26.556021 0.000000 0.000000
                            }
                        }
                    }
                }
            }
            JOINT RightShoulder
            {
                OFFSET -7.065357 33.973492 -0.192664
                CHANNELS 3 Zrotation Xrotation Yrotation
                JOINT RightArm
                {
                    OFFSET -21.527611 0.000000 0.000000
                    CHANNELS 3 Zrotation Xrotation Yrotation
                    JOINT RightForeArm
                    {
                        OFFSET -56.353916 0.000000 0.000000
                        CHANNELS 3 Zrotation Xrotation Yrotation
                        JOINT RightHand
                        {
                            OFFSET -47.774071 0.000000 0.000000
                            CHANNELS 3 Zrotation Xrotation Yrotation
                            End Site
                            {
                                OFFSET -26.556021 0.000000 0.000000
                            }
                        }
                    }
                }
            }
        }
    }
    JOINT LeftUpLeg
    {
        OFFSET 17.704014 0.000000 0.000000
        CHANNELS 3 Zrotation Xrotation Yrotation
        JOINT LeftLeg
        {
            OFFSET -0.000000 -81.181816 0.000000
            CHANNELS 3 Zrotation Xrotation Yrotation
            JOINT LeftFoot
            {
                OFFSET -0.000000 -62.821102 0.000000
                CHANNELS 3 Zrotation Xrotation Yrotation
                JOINT LeftToeBase
                {
                    OFFSET -0.000000 -11.507608 26.556021
                    CHANNELS 3 Zrotation Xrotation Yrotation
                    End Site
                    {
                        OFFSET -0.000000 0.000000 7.081605
                    }
                }
            }
        }
    }
    JOINT RightUpLeg
    {
        OFFSET -17.704014 0.000000 0.000000
        CHANNELS 3 Zrotation Xrotation Yrotation
        JOINT RightLeg
        {
            OFFSET -0.000000 -81.181816 0.000000
            CHANNELS 3 Zrotation Xrotation Yrotation
            JOINT RightFoot
            {
                OFFSET -0.000000 -62.821102 0.000000
                CHANNELS 3 Zrotation Xrotation Yrotation
                JOINT RightToeBase
                {
                    OFFSET -0.000000 -11.507608 26.556021
                    CHANNELS 3 Zrotation Xrotation Yrotation
                    End Site
                    {
                        OFFSET -0.000000 0.000000 7.081605
                    }
                }
            }
        }
    }
}
MOTION
Frames:    9
Frame Time:    0.008333
9.883870    157.348801    -94.799492    3.542463    -4.787807    93.967918    -3.689271    2.599495    0.034173    -4.817371    1.702031    0.054069    5.809635    4.132623    -12.271993    14.387212    5.228800    -12.061061    7.297563    7.571735    -19.710051    -25.128796    21.650255    -56.962067    -8.018394    -7.293414    -112.866196    -0.835457    -19.013325    -12.276713    -0.783790    3.538363    -8.538413    30.580278    -1.779669    17.866753    -55.471672    -28.825047    34.520550    -5.900879    -12.709694    29.979153    14.347658    -18.276758    -27.549751    -7.332855    26.678383    -31.206303    -7.246717    -15.834125    32.490326    0.000000    0.000000    0.000000    -16.220535    1.213433    -30.442327    11.252881    36.092144    -23.307579    19.875069    -8.900718    -31.433802    0.000000    0.000000    0.000000    
9.874641    157.342285    -94.834312    3.518543    -4.782598    93.856354    -3.695717    2.583421    0.024005    -4.808908    1.741617    0.051313    5.809107    4.126354    -12.309500    14.378901    5.216487    -12.099903    7.283639    7.562876    -19.759584    -25.112198    21.699673    -56.987392    -7.980618    -7.415957    -112.890060    -0.884816    -19.077513    -12.060288    -0.774956    3.511861    -8.548822    30.540775    -1.740739    17.868940    -55.510532    -28.805103    34.470680    -5.941672    -12.712469    29.996420    14.350748    -18.276724    -27.475531    -7.339098    26.742096    -31.204050    -7.199858    -15.881841    32.525085    0.000000    0.000000    0.000000    -16.260206    1.148947    -30.380810    11.274303    36.113926    -23.132143    19.833490    -8.954279    -31.567932    0.000000    0.000000    0.000000    
9.864086    157.333435    -94.865395    3.495816    -4.777741    93.733864    -3.707975    2.569554    0.019643    -4.789984    1.777052    0.052900    5.819942    4.226586    -12.364309    14.378192    5.067890    -12.134611    7.281624    7.588881    -19.788361    -25.121408    21.688496    -57.023350    -7.987290    -7.439378    -112.883720    -0.881266    -19.108374    -12.065365    -0.776383    3.497018    -8.550328    30.515707    -1.705633    17.855120    -55.531212    -28.818239    34.440083    -5.968017    -12.747102    30.061329    14.355913    -18.269457    -27.397070    -7.339723    26.776901    -31.191566    -7.162660    -15.910557    32.549309    0.000000    0.000000    0.000000    -16.296631    1.085519    -30.345875    11.279556    36.124283    -23.093960    19.780603    -8.953936    -31.558268    0.000000    0.000000    0.000000    
9.853018    157.328873    -94.893143    3.476620    -4.771167    93.611809    -3.737809    2.555299    0.012068    -4.749210    1.819958    0.051709    5.822097    4.229856    -12.395576    14.342858    5.037004    -12.167008    7.263382    7.603026    -19.823626    -25.227470    21.559072    -57.016399    -8.071918    -7.218809    -112.820168    -0.821310    -19.011406    -12.241245    -0.776646    3.458729    -8.535401    30.492905    -1.724586    17.830782    -55.490189    -28.818445    34.473946    -5.922268    -12.735679    30.128679    14.364079    -18.256859    -27.359661    -7.361507    26.796526    -31.141954    -7.138552    -15.927336    32.567940    0.000000    0.000000    0.000000    -16.332710    1.031522    -30.310453    11.295480    36.120285    -23.081167    19.735500    -8.952407    -31.538620    0.000000    0.000000    0.000000    
9.844011    157.326035    -94.926628    3.456775    -4.768977    93.479080    -3.762949    2.539137    0.018104    -4.694669    1.856994    0.052388    5.805643    4.235629    -12.424705    14.314272    5.010946    -12.194901    7.235498    7.614040    -19.845652    -25.248425    21.584646    -57.024574    -8.041181    -7.262318    -112.825974    -0.822449    -19.009743    -12.247725    -0.794079    3.436774    -8.537862    30.480801    -1.787296    17.838043    -55.400208    -28.806992    34.548592    -5.924603    -12.718114    30.164335    14.371550    -18.243105    -27.290051    -7.370895    26.830902    -31.111761    -7.101171    -15.942337    32.604061    0.000000    0.000000    0.000000    -16.366634    0.977653    -30.285185    11.308851    36.100502    -23.110796    19.656757    -8.909877    -31.487181    0.000000    0.000000    0.000000    
9.836881    157.324463    -94.959053    3.438736    -4.769302    93.342941    -3.785227    2.514436    0.028850    -4.650554    1.909823    0.057021    5.807375    4.246461    -12.462160    14.283326    4.971994    -12.231929    7.225272    7.616362    -19.872072    -25.263271    21.632692    -57.059395    -8.011729    -7.358731    -112.851959    -0.827353    -19.065844    -12.026442    -0.796709    3.399320    -8.537114    30.463871    -1.786057    17.830252    -55.387890    -28.800474    34.564034    -5.930787    -12.705247    30.105253    14.382006    -18.226158    -27.224749    -7.378522    26.867971    -31.059742    -7.078069    -15.972047    32.623573    0.000000    0.000000    0.000000    -16.393333    0.926645    -30.263439    11.307942    36.085339    -23.079430    19.604527    -8.893918    -31.452536    0.000000    0.000000    0.000000    
9.828978    157.319641    -94.993195    3.422822    -4.770231    93.208748    -3.796457    2.499364    0.039766    -4.620383    1.944419    0.060129    5.815220    4.254913    -12.503708    14.241404    4.954630    -12.277851    7.220533    7.640110    -19.905846    -25.288942    21.664684    -57.068638    -7.964318    -7.437212    -112.841789    -0.871672    -19.065470    -12.033216    -0.803466    3.414445    -8.558256    30.460480    -1.791728    17.864643    -55.379364    -28.801378    34.565521    -5.991977    -12.722643    30.064648    14.386521    -18.215027    -27.175890    -7.390045    26.922649    -31.013599    -7.024035    -15.996029    32.653397    0.000000    0.000000    0.000000    -16.415600    0.882969    -30.279108    11.276023    36.063053    -23.177711    19.560984    -8.819488    -31.249750    0.000000    0.000000    0.000000    
9.825132    157.318420    -95.029343    3.414149    -4.775954    93.076729    -3.794842    2.488278    0.041894    -4.610117    1.984417    0.065405    5.818020    4.248610    -12.520997    14.225710    4.937324    -12.296013    7.234379    7.653986    -19.918793    -25.339813    21.679482    -57.081505    -7.953682    -7.449746    -112.828514    -0.887346    -19.057579    -12.030451    -0.789944    3.402035    -8.561382    30.440533    -1.775248    17.857588    -55.373482    -28.814548    34.558933    -5.965256    -12.734499    30.029001    14.408579    -18.187426    -27.149765    -7.426581    26.941502    -30.964266    -6.989039    -16.025982    32.702740    0.000000    0.000000    0.000000    -16.433727    0.839263    -30.268106    11.259778    36.050896    -23.043440    19.503580    -8.839736    -31.319963    0.000000    0.000000    0.000000    
9.821144    157.314651    -95.069908    3.403034    -4.782220    92.941147    -3.799846    2.476835    0.044626    -4.572028    2.013628    0.067435    5.807023    4.256098    -12.555081    14.197043    4.928567    -12.331845    7.217149    7.680906    -19.931709    -25.367107    21.707293    -57.075348    -7.918002    -7.486784    -112.798958    -0.928910    -19.029167    -12.238532    -0.803694    3.438695    -8.583479    30.445280    -1.771967    17.920181    -55.390541    -28.827629    34.518009    -5.976416    -12.771098    30.071819    14.414120    -18.172758    -27.105951    -7.439317    27.001291    -30.934259    -6.951956    -16.063993    32.760025    0.000000    0.000000    0.000000    -16.454327    0.793495    -30.281738    11.216164    36.048119    -22.981041    19.478924    -8.816392    -31.253521    0.000000    0.000000    0.000000    
